<svg version="1.1" id="Layer_1" xmlns="http://www.w3.org/2000/svg" x="0" y="0" width="2192" height="934" xml:space="preserve"><style>.st0,.st1{fill-rule:evenodd;clip-rule:evenodd;fill:#151615}.st1{fill:#2c302d}.st2{fill:none}.st3{fill:#2c302d}</style><path class="st0" d="M533.03 305H14.97A9.98 9.98 0 015 295.03V14.97C5 9.47 9.47 5 14.97 5h518.05a9.97 9.97 0 019.97 9.97v280.05a9.97 9.97 0 01-9.96 9.98z"/><path class="st1" d="M521.96 20.51c1.83 0 3.34 1.51 3.34 3.37s-1.52 3.34-3.34 3.34c-1.86 0-3.37-1.48-3.37-3.34s1.51-3.37 3.37-3.37zm0 21.69a3.37 3.37 0 013.34 3.37 3.35 3.35 0 01-3.34 3.34 3.35 3.35 0 01-3.37-3.34 3.38 3.38 0 013.37-3.37zm0-10.84c1.83 0 3.34 1.51 3.34 3.37s-1.52 3.34-3.34 3.34c-1.86 0-3.37-1.48-3.37-3.34s1.51-3.37 3.37-3.37z"/><path class="st2" d="M43.7 30.85l-1.6-4.99-1.6 4.88a1.42 1.42 0 01-1.37 1.11l-5.29-.03 4.2 3.05c.54.34.8 1 .6 1.63l-1.66 5.02 4.17-3.03a1.42 1.42 0 011.77-.09l4.26 3.11-1.6-4.94a1.4 1.4 0 01.49-1.68l4.26-3.08-5.12.03a1.45 1.45 0 01-1.51-.99z"/><path class="st3" d="M54.76 28.97L46.1 29l-2.63-8.11a1.38 1.38 0 00-.94-1.03 1.43 1.43 0 00-1.8.91L38.07 29l-8.52-.03c-.49-.03-.97.17-1.29.6-.46.63-.31 1.51.31 2h.03l7 5.05-2.66 8.13c-.2.43-.14.94.17 1.34.46.66 1.34.8 1.97.31l7-5.08 6.86 4.99c.37.34.91.46 1.4.29a1.4 1.4 0 00.91-1.8l-2.69-8.19 6.95-5.02c.4-.26.66-.68.66-1.2a1.4 1.4 0 00-1.41-1.42zm-8.69 5.94c-.54.4-.74 1.11-.49 1.68l1.6 4.94-4.26-3.11a1.41 1.41 0 00-1.77.09l-4.17 3.03 1.66-5.02c.2-.63-.06-1.28-.6-1.63l-4.2-3.05 5.29.03c.66 0 1.23-.49 1.37-1.11l1.6-4.88 1.6 4.99c.23.66.86 1.06 1.52 1l5.12-.03-4.27 3.07zM49.93 279.48v.03c0 .09 0 .14-.03.23a10.87 10.87 0 01-3.14 6.48 10.97 10.97 0 01-6.29 3.14v3.03c0 .8-.69 1.48-1.49 1.48s-1.46-.66-1.46-1.48v-3.03a10.97 10.97 0 01-6.29-3.14 10.94 10.94 0 01-3.17-6.48v-.26c0-.8.63-1.43 1.43-1.43.77 0 1.43.63 1.43 1.43a8.3 8.3 0 002.32 4.74 8.15 8.15 0 0013.84-4.74c0-.8.63-1.43 1.43-1.43.8 0 1.42.63 1.42 1.43zm-10.94-12.84c3.6 0 6.55 2.94 6.55 6.54v5.31a6.53 6.53 0 01-13.07 0v-5.31c0-3.6 2.94-6.54 6.52-6.54z"/><path class="st1" d="M67.65 272.73h15.58c1.09 0 1.97.88 1.97 1.94v1.97l7.12-3.85v14.93l-7.12-3.88v1.97c0 1.08-.89 1.97-1.97 1.97H67.65a1.97 1.97 0 01-1.97-1.97v-11.13c0-1.07.88-1.95 1.97-1.95z"/><path class="st0" d="M533.03 615H14.97A9.98 9.98 0 015 605.03V324.97a9.97 9.97 0 019.97-9.97h518.05a9.97 9.97 0 019.97 9.97v280.05a9.97 9.97 0 01-9.96 9.98z"/><path class="st1" d="M521.96 330.51a3.37 3.37 0 013.34 3.37 3.35 3.35 0 01-3.34 3.34 3.35 3.35 0 01-3.37-3.34 3.38 3.38 0 013.37-3.37zm0 21.69a3.37 3.37 0 013.34 3.37 3.35 3.35 0 01-3.34 3.34 3.35 3.35 0 01-3.37-3.34 3.38 3.38 0 013.37-3.37zm0-10.84a3.37 3.37 0 013.34 3.37 3.35 3.35 0 01-3.34 3.34 3.35 3.35 0 01-3.37-3.34 3.37 3.37 0 013.37-3.37z"/><path class="st2" d="M43.7 340.85l-1.6-4.99-1.6 4.88a1.42 1.42 0 01-1.37 1.11l-5.29-.03 4.2 3.05c.54.34.8 1 .6 1.63l-1.66 5.02 4.17-3.03a1.42 1.42 0 011.77-.09l4.26 3.11-1.6-4.94a1.4 1.4 0 01.49-1.68l4.26-3.08-5.12.03a1.45 1.45 0 01-1.51-.99z"/><path class="st3" d="M54.76 338.97l-8.66.03-2.63-8.11a1.38 1.38 0 00-.94-1.03 1.43 1.43 0 00-1.8.91L38.07 339l-8.52-.03c-.49-.03-.97.17-1.29.6-.46.63-.31 1.51.31 2h.03l7 5.05-2.66 8.13c-.2.43-.14.94.17 1.34.46.66 1.34.8 1.97.31l7-5.08 6.86 4.99c.37.34.91.46 1.4.29a1.4 1.4 0 00.91-1.8l-2.69-8.19 6.95-5.02c.4-.26.66-.68.66-1.2a1.4 1.4 0 00-1.41-1.42zm-8.69 5.94c-.54.4-.74 1.11-.49 1.68l1.6 4.94-4.26-3.11a1.41 1.41 0 00-1.77.09l-4.17 3.03 1.66-5.02c.2-.63-.06-1.28-.6-1.63l-4.2-3.05 5.29.03c.66 0 1.23-.49 1.37-1.11l1.6-4.88 1.6 4.99c.23.66.86 1.06 1.52 1l5.12-.03-4.27 3.07zM49.93 589.48v.03c0 .09 0 .14-.03.23a10.87 10.87 0 01-3.14 6.48 10.97 10.97 0 01-6.29 3.14v3.03c0 .8-.69 1.48-1.49 1.48s-1.46-.66-1.46-1.48v-3.03a10.97 10.97 0 01-6.29-3.14 10.94 10.94 0 01-3.17-6.48v-.26c0-.8.63-1.43 1.43-1.43.77 0 1.43.63 1.43 1.43a8.3 8.3 0 002.32 4.74 8.15 8.15 0 0013.84-4.74c0-.8.63-1.43 1.43-1.43.8 0 1.42.63 1.42 1.43zm-10.94-12.84c3.6 0 6.55 2.94 6.55 6.54v5.31a6.53 6.53 0 01-13.07 0v-5.31c0-3.6 2.94-6.54 6.52-6.54z"/><path class="st1" d="M67.65 582.73h15.58c1.09 0 1.97.88 1.97 1.94v1.97l7.12-3.85v14.93l-7.12-3.88v1.97c0 1.08-.89 1.97-1.97 1.97H67.65a1.97 1.97 0 01-1.97-1.97v-11.13c0-1.07.88-1.95 1.97-1.95z"/><path class="st0" d="M533.03 925H14.97A9.98 9.98 0 015 915.03V634.97a9.97 9.97 0 019.97-9.97h518.05a9.97 9.97 0 019.97 9.97v280.05a9.97 9.97 0 01-9.96 9.98z"/><path class="st1" d="M521.96 640.51a3.37 3.37 0 013.34 3.37 3.35 3.35 0 01-3.34 3.34 3.35 3.35 0 01-3.37-3.34 3.38 3.38 0 013.37-3.37zm0 21.69c1.83 0 3.34 1.51 3.34 3.37s-1.52 3.34-3.34 3.34c-1.86 0-3.37-1.48-3.37-3.34s1.51-3.37 3.37-3.37zm0-10.84c1.83 0 3.34 1.51 3.34 3.37s-1.52 3.34-3.34 3.34c-1.86 0-3.37-1.48-3.37-3.34s1.51-3.37 3.37-3.37z"/><path class="st2" d="M43.7 650.85l-1.6-4.99-1.6 4.88a1.42 1.42 0 01-1.37 1.11l-5.29-.03 4.2 3.05c.54.34.8 1 .6 1.63l-1.66 5.02 4.17-3.03a1.42 1.42 0 011.77-.09l4.26 3.11-1.6-4.94a1.4 1.4 0 01.49-1.68l4.26-3.08-5.12.03a1.45 1.45 0 01-1.51-.99z"/><path class="st3" d="M54.76 648.97l-8.66.03-2.63-8.11a1.38 1.38 0 00-.94-1.03 1.43 1.43 0 00-1.8.91L38.07 649l-8.52-.03c-.49-.03-.97.17-1.29.6-.46.63-.31 1.51.31 2h.03l7 5.05-2.66 8.13c-.2.43-.14.94.17 1.34.46.66 1.34.8 1.97.31l7-5.08 6.86 4.99c.37.34.91.46 1.4.29a1.4 1.4 0 00.91-1.8l-2.69-8.19 6.95-5.02c.4-.26.66-.68.66-1.2a1.4 1.4 0 00-1.41-1.42zm-8.69 5.94c-.54.4-.74 1.11-.49 1.68l1.6 4.94-4.26-3.11a1.41 1.41 0 00-1.77.09l-4.17 3.03 1.66-5.02c.2-.63-.06-1.28-.6-1.63l-4.2-3.05 5.29.03c.66 0 1.23-.49 1.37-1.11l1.6-4.88 1.6 4.99c.23.66.86 1.06 1.52 1l5.12-.03-4.27 3.07zM49.93 899.48v.03c0 .09 0 .14-.03.23a10.87 10.87 0 01-3.14 6.48 10.97 10.97 0 01-6.29 3.14v3.03c0 .8-.69 1.48-1.49 1.48s-1.46-.66-1.46-1.48v-3.03a10.97 10.97 0 01-6.29-3.14 10.94 10.94 0 01-3.17-6.48v-.26c0-.8.63-1.43 1.43-1.43.77 0 1.43.63 1.43 1.43a8.3 8.3 0 002.32 4.74 8.15 8.15 0 0013.84-4.74c0-.8.63-1.43 1.43-1.43.8 0 1.42.63 1.42 1.43zm-10.94-12.84c3.6 0 6.55 2.94 6.55 6.54v5.31a6.53 6.53 0 01-13.07 0v-5.31c0-3.6 2.94-6.54 6.52-6.54z"/><path class="st1" d="M67.65 892.73h15.58c1.09 0 1.97.88 1.97 1.94v1.97l7.12-3.85v14.93l-7.12-3.88v1.97c0 1.08-.89 1.97-1.97 1.97H67.65a1.97 1.97 0 01-1.97-1.97v-11.13c0-1.07.88-1.95 1.97-1.95z"/><path class="st0" d="M1081.03 305H562.97a9.97 9.97 0 01-9.97-9.97V14.97A9.97 9.97 0 01562.97 5h518.05a9.97 9.97 0 019.97 9.97v280.05a9.97 9.97 0 01-9.96 9.98z"/><path class="st1" d="M1069.96 20.51c1.83 0 3.34 1.51 3.34 3.37s-1.52 3.34-3.34 3.34c-1.86 0-3.37-1.48-3.37-3.34s1.51-3.37 3.37-3.37zm0 21.69a3.37 3.37 0 013.34 3.37 3.35 3.35 0 01-3.34 3.34 3.35 3.35 0 01-3.37-3.34 3.38 3.38 0 013.37-3.37zm0-10.84c1.83 0 3.34 1.51 3.34 3.37s-1.52 3.34-3.34 3.34c-1.86 0-3.37-1.48-3.37-3.34s1.51-3.37 3.37-3.37z"/><path class="st2" d="M591.7 30.85l-1.6-4.99-1.6 4.88a1.42 1.42 0 01-1.37 1.11l-5.29-.03 4.2 3.05c.54.34.8 1 .6 1.63l-1.66 5.02 4.17-3.03a1.42 1.42 0 011.77-.09l4.26 3.11-1.6-4.94a1.4 1.4 0 01.49-1.68l4.26-3.08-5.12.03a1.45 1.45 0 01-1.51-.99z"/><path class="st3" d="M602.76 28.97l-8.66.03-2.63-8.11a1.38 1.38 0 00-.94-1.03 1.43 1.43 0 00-1.8.91L586.07 29l-8.52-.03c-.49-.03-.97.17-1.29.6-.46.63-.31 1.51.31 2h.03l7 5.05-2.66 8.13c-.2.43-.14.94.17 1.34.46.66 1.34.8 1.97.31l7-5.08 6.86 4.99c.37.34.91.46 1.4.29a1.4 1.4 0 00.91-1.8l-2.69-8.19 6.95-5.02c.4-.26.66-.68.66-1.2a1.4 1.4 0 00-1.41-1.42zm-8.69 5.94c-.54.4-.74 1.11-.49 1.68l1.6 4.94-4.26-3.11a1.41 1.41 0 00-1.77.09l-4.17 3.03 1.66-5.02c.2-.63-.06-1.28-.6-1.63l-4.2-3.05 5.29.03c.66 0 1.23-.49 1.37-1.11l1.6-4.88 1.6 4.99c.23.66.86 1.06 1.52 1l5.12-.03-4.27 3.07zM597.93 279.48v.03c0 .09 0 .14-.03.23a10.87 10.87 0 01-3.14 6.48 10.97 10.97 0 01-6.29 3.14v3.03c0 .8-.69 1.48-1.49 1.48s-1.46-.66-1.46-1.48v-3.03a10.97 10.97 0 01-6.29-3.14 10.94 10.94 0 01-3.17-6.48v-.26c0-.8.63-1.43 1.43-1.43.77 0 1.43.63 1.43 1.43a8.3 8.3 0 002.32 4.74 8.15 8.15 0 0013.84-4.74c0-.8.63-1.43 1.43-1.43.8 0 1.42.63 1.42 1.43zm-10.94-12.84c3.6 0 6.55 2.94 6.55 6.54v5.31a6.53 6.53 0 01-13.07 0v-5.31c0-3.6 2.94-6.54 6.52-6.54z"/><path class="st1" d="M615.65 272.73h15.58c1.09 0 1.97.88 1.97 1.94v1.97l7.12-3.85v14.93l-7.12-3.88v1.97c0 1.08-.89 1.97-1.97 1.97h-15.58a1.97 1.97 0 01-1.97-1.97v-11.13c0-1.07.88-1.95 1.97-1.95z"/><path class="st0" d="M1081.03 615H562.97a9.97 9.97 0 01-9.97-9.97V324.97a9.97 9.97 0 019.97-9.97h518.05a9.97 9.97 0 019.97 9.97v280.05a9.97 9.97 0 01-9.96 9.98z"/><path class="st1" d="M1069.96 330.51a3.37 3.37 0 013.34 3.37 3.35 3.35 0 01-3.34 3.34 3.35 3.35 0 01-3.37-3.34 3.38 3.38 0 013.37-3.37zm0 21.69a3.37 3.37 0 013.34 3.37 3.35 3.35 0 01-3.34 3.34 3.35 3.35 0 01-3.37-3.34 3.38 3.38 0 013.37-3.37zm0-10.84a3.37 3.37 0 013.34 3.37 3.35 3.35 0 01-3.34 3.34 3.35 3.35 0 01-3.37-3.34 3.37 3.37 0 013.37-3.37z"/><path class="st2" d="M591.7 340.85l-1.6-4.99-1.6 4.88a1.42 1.42 0 01-1.37 1.11l-5.29-.03 4.2 3.05c.54.34.8 1 .6 1.63l-1.66 5.02 4.17-3.03a1.42 1.42 0 011.77-.09l4.26 3.11-1.6-4.94a1.4 1.4 0 01.49-1.68l4.26-3.08-5.12.03a1.45 1.45 0 01-1.51-.99z"/><path class="st3" d="M602.76 338.97l-8.66.03-2.63-8.11a1.38 1.38 0 00-.94-1.03 1.43 1.43 0 00-1.8.91l-2.66 8.22-8.52-.03c-.49-.03-.97.17-1.29.6-.46.63-.31 1.51.31 2h.03l7 5.05-2.66 8.13c-.2.43-.14.94.17 1.34.46.66 1.34.8 1.97.31l7-5.08 6.86 4.99c.37.34.91.46 1.4.29a1.4 1.4 0 00.91-1.8l-2.69-8.19 6.95-5.02c.4-.26.66-.68.66-1.2a1.4 1.4 0 00-1.41-1.41zm-8.69 5.94c-.54.4-.74 1.11-.49 1.68l1.6 4.94-4.26-3.11a1.41 1.41 0 00-1.77.09l-4.17 3.03 1.66-5.02c.2-.63-.06-1.28-.6-1.63l-4.2-3.05 5.29.03c.66 0 1.23-.49 1.37-1.11l1.6-4.88 1.6 4.99c.23.66.86 1.06 1.52 1l5.12-.03-4.27 3.07zM597.93 589.48v.03c0 .09 0 .14-.03.23a10.87 10.87 0 01-3.14 6.48 10.97 10.97 0 01-6.29 3.14v3.03c0 .8-.69 1.48-1.49 1.48s-1.46-.66-1.46-1.48v-3.03a10.97 10.97 0 01-6.29-3.14 10.94 10.94 0 01-3.17-6.48v-.26c0-.8.63-1.43 1.43-1.43.77 0 1.43.63 1.43 1.43a8.3 8.3 0 002.32 4.74 8.15 8.15 0 0013.84-4.74c0-.8.63-1.43 1.43-1.43.8 0 1.42.63 1.42 1.43zm-10.94-12.84c3.6 0 6.55 2.94 6.55 6.54v5.31a6.53 6.53 0 01-13.07 0v-5.31c0-3.6 2.94-6.54 6.52-6.54z"/><path class="st1" d="M615.65 582.73h15.58c1.09 0 1.97.88 1.97 1.94v1.97l7.12-3.85v14.93l-7.12-3.88v1.97c0 1.08-.89 1.97-1.97 1.97h-15.58a1.97 1.97 0 01-1.97-1.97v-11.13c0-1.07.88-1.95 1.97-1.95z"/><path class="st0" d="M1081.03 925H562.97a9.97 9.97 0 01-9.97-9.97V634.97a9.97 9.97 0 019.97-9.97h518.05a9.97 9.97 0 019.97 9.97v280.05a9.97 9.97 0 01-9.96 9.98z"/><path class="st1" d="M1069.96 640.51a3.37 3.37 0 013.34 3.37 3.35 3.35 0 01-3.34 3.34 3.35 3.35 0 01-3.37-3.34 3.38 3.38 0 013.37-3.37zm0 21.69c1.83 0 3.34 1.51 3.34 3.37s-1.52 3.34-3.34 3.34c-1.86 0-3.37-1.48-3.37-3.34s1.51-3.37 3.37-3.37zm0-10.84c1.83 0 3.34 1.51 3.34 3.37s-1.52 3.34-3.34 3.34c-1.86 0-3.37-1.48-3.37-3.34s1.51-3.37 3.37-3.37z"/><path class="st2" d="M591.7 650.85l-1.6-4.99-1.6 4.88a1.42 1.42 0 01-1.37 1.11l-5.29-.03 4.2 3.05c.54.34.8 1 .6 1.63l-1.66 5.02 4.17-3.03a1.42 1.42 0 011.77-.09l4.26 3.11-1.6-4.94a1.4 1.4 0 01.49-1.68l4.26-3.08-5.12.03a1.45 1.45 0 01-1.51-.99z"/><path class="st3" d="M602.76 648.97l-8.66.03-2.63-8.11a1.38 1.38 0 00-.94-1.03 1.43 1.43 0 00-1.8.91l-2.66 8.22-8.52-.03c-.49-.03-.97.17-1.29.6-.46.63-.31 1.51.31 2h.03l7 5.05-2.66 8.13c-.2.43-.14.94.17 1.34.46.66 1.34.8 1.97.31l7-5.08 6.86 4.99c.37.34.91.46 1.4.29a1.4 1.4 0 00.91-1.8l-2.69-8.19 6.95-5.02c.4-.26.66-.68.66-1.2a1.4 1.4 0 00-1.41-1.41zm-8.69 5.94c-.54.4-.74 1.11-.49 1.68l1.6 4.94-4.26-3.11a1.41 1.41 0 00-1.77.09l-4.17 3.03 1.66-5.02c.2-.63-.06-1.28-.6-1.63l-4.2-3.05 5.29.03c.66 0 1.23-.49 1.37-1.11l1.6-4.88 1.6 4.99c.23.66.86 1.06 1.52 1l5.12-.03-4.27 3.07zM597.93 899.48v.03c0 .09 0 .14-.03.23a10.87 10.87 0 01-3.14 6.48 10.97 10.97 0 01-6.29 3.14v3.03c0 .8-.69 1.48-1.49 1.48s-1.46-.66-1.46-1.48v-3.03a10.97 10.97 0 01-6.29-3.14 10.94 10.94 0 01-3.17-6.48v-.26c0-.8.63-1.43 1.43-1.43.77 0 1.43.63 1.43 1.43a8.3 8.3 0 002.32 4.74 8.15 8.15 0 0013.84-4.74c0-.8.63-1.43 1.43-1.43.8 0 1.42.63 1.42 1.43zm-10.94-12.84c3.6 0 6.55 2.94 6.55 6.54v5.31a6.53 6.53 0 01-13.07 0v-5.31c0-3.6 2.94-6.54 6.52-6.54z"/><path class="st1" d="M615.65 892.73h15.58c1.09 0 1.97.88 1.97 1.94v1.97l7.12-3.85v14.93l-7.12-3.88v1.97c0 1.08-.89 1.97-1.97 1.97h-15.58a1.97 1.97 0 01-1.97-1.97v-11.13c0-1.07.88-1.95 1.97-1.95z"/><path class="st0" d="M1629.03 305h-518.05a9.97 9.97 0 01-9.97-9.97V14.97a9.97 9.97 0 019.97-9.97h518.05a9.97 9.97 0 019.97 9.97v280.05a9.98 9.98 0 01-9.97 9.98z"/><path class="st1" d="M1617.96 20.51c1.83 0 3.34 1.51 3.34 3.37s-1.52 3.34-3.34 3.34c-1.86 0-3.37-1.48-3.37-3.34s1.51-3.37 3.37-3.37zm0 21.69a3.37 3.37 0 013.34 3.37 3.35 3.35 0 01-3.34 3.34 3.35 3.35 0 01-3.37-3.34 3.38 3.38 0 013.37-3.37zm0-10.84c1.83 0 3.34 1.51 3.34 3.37s-1.52 3.34-3.34 3.34c-1.86 0-3.37-1.48-3.37-3.34s1.51-3.37 3.37-3.37z"/><path class="st2" d="M1139.7 30.85l-1.6-4.99-1.6 4.88a1.42 1.42 0 01-1.37 1.11l-5.29-.03 4.2 3.05c.54.34.8 1 .6 1.63l-1.66 5.02 4.17-3.03a1.42 1.42 0 011.77-.09l4.26 3.11-1.6-4.94a1.4 1.4 0 01.49-1.68l4.26-3.08-5.12.03a1.45 1.45 0 01-1.51-.99z"/><path class="st3" d="M1150.76 28.97l-8.66.03-2.63-8.11a1.38 1.38 0 00-.94-1.03 1.43 1.43 0 00-1.8.91l-2.66 8.22-8.52-.03c-.49-.03-.97.17-1.29.6-.46.63-.31 1.51.31 2h.03l7 5.05-2.66 8.13c-.2.43-.14.94.17 1.34.46.66 1.34.8 1.97.31l7-5.08 6.86 4.99c.37.34.91.46 1.4.29a1.4 1.4 0 00.91-1.8l-2.69-8.19 6.95-5.02c.4-.26.66-.68.66-1.2a1.4 1.4 0 00-1.41-1.41zm-8.69 5.94c-.54.4-.74 1.11-.49 1.68l1.6 4.94-4.26-3.11a1.41 1.41 0 00-1.77.09l-4.17 3.03 1.66-5.02c.2-.63-.06-1.28-.6-1.63l-4.2-3.05 5.29.03c.66 0 1.23-.49 1.37-1.11l1.6-4.88 1.6 4.99c.23.66.86 1.06 1.52 1l5.12-.03-4.27 3.07zM1145.93 279.48v.03c0 .09 0 .14-.03.23a10.87 10.87 0 01-3.14 6.48 10.97 10.97 0 01-6.29 3.14v3.03c0 .8-.69 1.48-1.49 1.48s-1.46-.66-1.46-1.48v-3.03a10.97 10.97 0 01-6.29-3.14 10.94 10.94 0 01-3.17-6.48v-.26c0-.8.63-1.43 1.43-1.43.77 0 1.43.63 1.43 1.43a8.3 8.3 0 002.32 4.74 8.15 8.15 0 0013.84-4.74c0-.8.63-1.43 1.43-1.43.8 0 1.42.63 1.42 1.43zm-10.94-12.84c3.6 0 6.55 2.94 6.55 6.54v5.31a6.53 6.53 0 01-13.07 0v-5.31c0-3.6 2.94-6.54 6.52-6.54z"/><path class="st1" d="M1163.65 272.73h15.58c1.09 0 1.97.88 1.97 1.94v1.97l7.12-3.85v14.93l-7.12-3.88v1.97c0 1.08-.89 1.97-1.97 1.97h-15.58a1.97 1.97 0 01-1.97-1.97v-11.13c0-1.07.88-1.95 1.97-1.95z"/><path class="st0" d="M1629.03 615h-518.05a9.97 9.97 0 01-9.97-9.97V324.97a9.97 9.97 0 019.97-9.97h518.05a9.97 9.97 0 019.97 9.97v280.05a9.98 9.98 0 01-9.97 9.98z"/><path class="st1" d="M1617.96 330.51a3.37 3.37 0 013.34 3.37 3.35 3.35 0 01-3.34 3.34 3.35 3.35 0 01-3.37-3.34 3.38 3.38 0 013.37-3.37zm0 21.69a3.37 3.37 0 013.34 3.37 3.35 3.35 0 01-3.34 3.34 3.35 3.35 0 01-3.37-3.34 3.38 3.38 0 013.37-3.37zm0-10.84a3.37 3.37 0 013.34 3.37 3.35 3.35 0 01-3.34 3.34 3.35 3.35 0 01-3.37-3.34 3.37 3.37 0 013.37-3.37z"/><path class="st2" d="M1139.7 340.85l-1.6-4.99-1.6 4.88a1.42 1.42 0 01-1.37 1.11l-5.29-.03 4.2 3.05c.54.34.8 1 .6 1.63l-1.66 5.02 4.17-3.03a1.42 1.42 0 011.77-.09l4.26 3.11-1.6-4.94a1.4 1.4 0 01.49-1.68l4.26-3.08-5.12.03a1.45 1.45 0 01-1.51-.99z"/><path class="st3" d="M1150.76 338.97l-8.66.03-2.63-8.11a1.38 1.38 0 00-.94-1.03 1.43 1.43 0 00-1.8.91l-2.66 8.22-8.52-.03c-.49-.03-.97.17-1.29.6-.46.63-.31 1.51.31 2h.03l7 5.05-2.66 8.13c-.2.43-.14.94.17 1.34.46.66 1.34.8 1.97.31l7-5.08 6.86 4.99c.37.34.91.46 1.4.29a1.4 1.4 0 00.91-1.8l-2.69-8.19 6.95-5.02c.4-.26.66-.68.66-1.2a1.4 1.4 0 00-1.41-1.41zm-8.69 5.94c-.54.4-.74 1.11-.49 1.68l1.6 4.94-4.26-3.11a1.41 1.41 0 00-1.77.09l-4.17 3.03 1.66-5.02c.2-.63-.06-1.28-.6-1.63l-4.2-3.05 5.29.03c.66 0 1.23-.49 1.37-1.11l1.6-4.88 1.6 4.99c.23.66.86 1.06 1.52 1l5.12-.03-4.27 3.07zM1145.93 589.48v.03c0 .09 0 .14-.03.23a10.87 10.87 0 01-3.14 6.48 10.97 10.97 0 01-6.29 3.14v3.03c0 .8-.69 1.48-1.49 1.48s-1.46-.66-1.46-1.48v-3.03a10.97 10.97 0 01-6.29-3.14 10.94 10.94 0 01-3.17-6.48v-.26c0-.8.63-1.43 1.43-1.43.77 0 1.43.63 1.43 1.43a8.3 8.3 0 002.32 4.74 8.15 8.15 0 0013.84-4.74c0-.8.63-1.43 1.43-1.43.8 0 1.42.63 1.42 1.43zm-10.94-12.84c3.6 0 6.55 2.94 6.55 6.54v5.31a6.53 6.53 0 01-13.07 0v-5.31c0-3.6 2.94-6.54 6.52-6.54z"/><path class="st1" d="M1163.65 582.73h15.58c1.09 0 1.97.88 1.97 1.94v1.97l7.12-3.85v14.93l-7.12-3.88v1.97c0 1.08-.89 1.97-1.97 1.97h-15.58a1.97 1.97 0 01-1.97-1.97v-11.13c0-1.07.88-1.95 1.97-1.95z"/><path class="st0" d="M1629.03 925h-518.05a9.97 9.97 0 01-9.97-9.97V634.97a9.97 9.97 0 019.97-9.97h518.05a9.97 9.97 0 019.97 9.97v280.05a9.98 9.98 0 01-9.97 9.98z"/><path class="st1" d="M1617.96 640.51a3.37 3.37 0 013.34 3.37 3.35 3.35 0 01-3.34 3.34 3.35 3.35 0 01-3.37-3.34 3.38 3.38 0 013.37-3.37zm0 21.69c1.83 0 3.34 1.51 3.34 3.37s-1.52 3.34-3.34 3.34c-1.86 0-3.37-1.48-3.37-3.34s1.51-3.37 3.37-3.37zm0-10.84c1.83 0 3.34 1.51 3.34 3.37s-1.52 3.34-3.34 3.34c-1.86 0-3.37-1.48-3.37-3.34s1.51-3.37 3.37-3.37z"/><path class="st2" d="M1139.7 650.85l-1.6-4.99-1.6 4.88a1.42 1.42 0 01-1.37 1.11l-5.29-.03 4.2 3.05c.54.34.8 1 .6 1.63l-1.66 5.02 4.17-3.03a1.42 1.42 0 011.77-.09l4.26 3.11-1.6-4.94a1.4 1.4 0 01.49-1.68l4.26-3.08-5.12.03a1.45 1.45 0 01-1.51-.99z"/><path class="st3" d="M1150.76 648.97l-8.66.03-2.63-8.11a1.38 1.38 0 00-.94-1.03 1.43 1.43 0 00-1.8.91l-2.66 8.22-8.52-.03c-.49-.03-.97.17-1.29.6-.46.63-.31 1.51.31 2h.03l7 5.05-2.66 8.13c-.2.43-.14.94.17 1.34.46.66 1.34.8 1.97.31l7-5.08 6.86 4.99c.37.34.91.46 1.4.29a1.4 1.4 0 00.91-1.8l-2.69-8.19 6.95-5.02c.4-.26.66-.68.66-1.2a1.4 1.4 0 00-1.41-1.41zm-8.69 5.94c-.54.4-.74 1.11-.49 1.68l1.6 4.94-4.26-3.11a1.41 1.41 0 00-1.77.09l-4.17 3.03 1.66-5.02c.2-.63-.06-1.28-.6-1.63l-4.2-3.05 5.29.03c.66 0 1.23-.49 1.37-1.11l1.6-4.88 1.6 4.99c.23.66.86 1.06 1.52 1l5.12-.03-4.27 3.07zM1145.93 899.48v.03c0 .09 0 .14-.03.23a10.87 10.87 0 01-3.14 6.48 10.97 10.97 0 01-6.29 3.14v3.03c0 .8-.69 1.48-1.49 1.48s-1.46-.66-1.46-1.48v-3.03a10.97 10.97 0 01-6.29-3.14 10.94 10.94 0 01-3.17-6.48v-.26c0-.8.63-1.43 1.43-1.43.77 0 1.43.63 1.43 1.43a8.3 8.3 0 002.32 4.74 8.15 8.15 0 0013.84-4.74c0-.8.63-1.43 1.43-1.43.8 0 1.42.63 1.42 1.43zm-10.94-12.84c3.6 0 6.55 2.94 6.55 6.54v5.31a6.53 6.53 0 01-13.07 0v-5.31c0-3.6 2.94-6.54 6.52-6.54z"/><path class="st1" d="M1163.65 892.73h15.58c1.09 0 1.97.88 1.97 1.94v1.97l7.12-3.85v14.93l-7.12-3.88v1.97c0 1.08-.89 1.97-1.97 1.97h-15.58a1.97 1.97 0 01-1.97-1.97v-11.13c0-1.07.88-1.95 1.97-1.95z"/><path class="st0" d="M2177.03 305h-518.05a9.97 9.97 0 01-9.97-9.97V14.97a9.97 9.97 0 019.97-9.97h518.05a9.97 9.97 0 019.97 9.97v280.05a9.98 9.98 0 01-9.97 9.98z"/><path class="st1" d="M2165.96 20.51c1.83 0 3.34 1.51 3.34 3.37s-1.52 3.34-3.34 3.34c-1.86 0-3.37-1.48-3.37-3.34s1.51-3.37 3.37-3.37zm0 21.69a3.37 3.37 0 013.34 3.37 3.35 3.35 0 01-3.34 3.34 3.35 3.35 0 01-3.37-3.34 3.38 3.38 0 013.37-3.37zm0-10.84c1.83 0 3.34 1.51 3.34 3.37s-1.52 3.34-3.34 3.34c-1.86 0-3.37-1.48-3.37-3.34s1.51-3.37 3.37-3.37z"/><path class="st2" d="M1687.7 30.85l-1.6-4.99-1.6 4.88a1.42 1.42 0 01-1.37 1.11l-5.29-.03 4.2 3.05c.54.34.8 1 .6 1.63l-1.66 5.02 4.17-3.03a1.42 1.42 0 011.77-.09l4.26 3.11-1.6-4.94a1.4 1.4 0 01.49-1.68l4.26-3.08-5.12.03a1.45 1.45 0 01-1.51-.99z"/><path class="st3" d="M1698.76 28.97l-8.66.03-2.63-8.11a1.38 1.38 0 00-.94-1.03 1.43 1.43 0 00-1.8.91l-2.66 8.22-8.52-.03c-.49-.03-.97.17-1.29.6-.46.63-.31 1.51.31 2h.03l7 5.05-2.66 8.13c-.2.43-.14.94.17 1.34.46.66 1.34.8 1.97.31l7-5.08 6.86 4.99c.37.34.91.46 1.4.29a1.4 1.4 0 00.91-1.8l-2.69-8.19 6.95-5.02c.4-.26.66-.68.66-1.2a1.4 1.4 0 00-1.41-1.41zm-8.69 5.94c-.54.4-.74 1.11-.49 1.68l1.6 4.94-4.26-3.11a1.41 1.41 0 00-1.77.09l-4.17 3.03 1.66-5.02c.2-.63-.06-1.28-.6-1.63l-4.2-3.05 5.29.03c.66 0 1.23-.49 1.37-1.11l1.6-4.88 1.6 4.99c.23.66.86 1.06 1.52 1l5.12-.03-4.27 3.07zM1693.93 279.48v.03c0 .09 0 .14-.03.23a10.87 10.87 0 01-3.14 6.48 10.97 10.97 0 01-6.29 3.14v3.03c0 .8-.69 1.48-1.49 1.48s-1.46-.66-1.46-1.48v-3.03a10.97 10.97 0 01-6.29-3.14 10.94 10.94 0 01-3.17-6.48v-.26c0-.8.63-1.43 1.43-1.43.77 0 1.43.63 1.43 1.43a8.3 8.3 0 002.32 4.74 8.15 8.15 0 0013.84-4.74c0-.8.63-1.43 1.43-1.43.8 0 1.42.63 1.42 1.43zm-10.94-12.84c3.6 0 6.55 2.94 6.55 6.54v5.31a6.53 6.53 0 01-13.07 0v-5.31c0-3.6 2.94-6.54 6.52-6.54z"/><path class="st1" d="M1711.65 272.73h15.58c1.09 0 1.97.88 1.97 1.94v1.97l7.12-3.85v14.93l-7.12-3.88v1.97c0 1.08-.89 1.97-1.97 1.97h-15.58a1.97 1.97 0 01-1.97-1.97v-11.13c0-1.07.88-1.95 1.97-1.95z"/><path class="st0" d="M2177.03 615h-518.05a9.97 9.97 0 01-9.97-9.97V324.97a9.97 9.97 0 019.97-9.97h518.05a9.97 9.97 0 019.97 9.97v280.05a9.98 9.98 0 01-9.97 9.98z"/><path class="st1" d="M2165.96 330.51a3.37 3.37 0 013.34 3.37 3.35 3.35 0 01-3.34 3.34 3.35 3.35 0 01-3.37-3.34 3.38 3.38 0 013.37-3.37zm0 21.69a3.37 3.37 0 013.34 3.37 3.35 3.35 0 01-3.34 3.34 3.35 3.35 0 01-3.37-3.34 3.38 3.38 0 013.37-3.37zm0-10.84a3.37 3.37 0 013.34 3.37 3.35 3.35 0 01-3.34 3.34 3.35 3.35 0 01-3.37-3.34 3.37 3.37 0 013.37-3.37z"/><path class="st2" d="M1687.7 340.85l-1.6-4.99-1.6 4.88a1.42 1.42 0 01-1.37 1.11l-5.29-.03 4.2 3.05c.54.34.8 1 .6 1.63l-1.66 5.02 4.17-3.03a1.42 1.42 0 011.77-.09l4.26 3.11-1.6-4.94a1.4 1.4 0 01.49-1.68l4.26-3.08-5.12.03a1.45 1.45 0 01-1.51-.99z"/><path class="st3" d="M1698.76 338.97l-8.66.03-2.63-8.11a1.38 1.38 0 00-.94-1.03 1.43 1.43 0 00-1.8.91l-2.66 8.22-8.52-.03c-.49-.03-.97.17-1.29.6-.46.63-.31 1.51.31 2h.03l7 5.05-2.66 8.13c-.2.43-.14.94.17 1.34.46.66 1.34.8 1.97.31l7-5.08 6.86 4.99c.37.34.91.46 1.4.29a1.4 1.4 0 00.91-1.8l-2.69-8.19 6.95-5.02c.4-.26.66-.68.66-1.2a1.4 1.4 0 00-1.41-1.41zm-8.69 5.94c-.54.4-.74 1.11-.49 1.68l1.6 4.94-4.26-3.11a1.41 1.41 0 00-1.77.09l-4.17 3.03 1.66-5.02c.2-.63-.06-1.28-.6-1.63l-4.2-3.05 5.29.03c.66 0 1.23-.49 1.37-1.11l1.6-4.88 1.6 4.99c.23.66.86 1.06 1.52 1l5.12-.03-4.27 3.07zM1693.93 589.48v.03c0 .09 0 .14-.03.23a10.87 10.87 0 01-3.14 6.48 10.97 10.97 0 01-6.29 3.14v3.03c0 .8-.69 1.48-1.49 1.48s-1.46-.66-1.46-1.48v-3.03a10.97 10.97 0 01-6.29-3.14 10.94 10.94 0 01-3.17-6.48v-.26c0-.8.63-1.43 1.43-1.43.77 0 1.43.63 1.43 1.43a8.3 8.3 0 002.32 4.74 8.15 8.15 0 0013.84-4.74c0-.8.63-1.43 1.43-1.43.8 0 1.42.63 1.42 1.43zm-10.94-12.84c3.6 0 6.55 2.94 6.55 6.54v5.31a6.53 6.53 0 01-13.07 0v-5.31c0-3.6 2.94-6.54 6.52-6.54z"/><path class="st1" d="M1711.65 582.73h15.58c1.09 0 1.97.88 1.97 1.94v1.97l7.12-3.85v14.93l-7.12-3.88v1.97c0 1.08-.89 1.97-1.97 1.97h-15.58a1.97 1.97 0 01-1.97-1.97v-11.13c0-1.07.88-1.95 1.97-1.95z"/><path class="st0" d="M2177.03 925h-518.05a9.97 9.97 0 01-9.97-9.97V634.97a9.97 9.97 0 019.97-9.97h518.05a9.97 9.97 0 019.97 9.97v280.05a9.98 9.98 0 01-9.97 9.98z"/><path class="st1" d="M2165.96 640.51a3.37 3.37 0 013.34 3.37 3.35 3.35 0 01-3.34 3.34 3.35 3.35 0 01-3.37-3.34 3.38 3.38 0 013.37-3.37zm0 21.69c1.83 0 3.34 1.51 3.34 3.37s-1.52 3.34-3.34 3.34c-1.86 0-3.37-1.48-3.37-3.34s1.51-3.37 3.37-3.37zm0-10.84c1.83 0 3.34 1.51 3.34 3.37s-1.52 3.34-3.34 3.34c-1.86 0-3.37-1.48-3.37-3.34s1.51-3.37 3.37-3.37z"/><path class="st2" d="M1687.7 650.85l-1.6-4.99-1.6 4.88a1.42 1.42 0 01-1.37 1.11l-5.29-.03 4.2 3.05c.54.34.8 1 .6 1.63l-1.66 5.02 4.17-3.03a1.42 1.42 0 011.77-.09l4.26 3.11-1.6-4.94a1.4 1.4 0 01.49-1.68l4.26-3.08-5.12.03a1.45 1.45 0 01-1.51-.99z"/><path class="st3" d="M1698.76 648.97l-8.66.03-2.63-8.11a1.38 1.38 0 00-.94-1.03 1.43 1.43 0 00-1.8.91l-2.66 8.22-8.52-.03c-.49-.03-.97.17-1.29.6-.46.63-.31 1.51.31 2h.03l7 5.05-2.66 8.13c-.2.43-.14.94.17 1.34.46.66 1.34.8 1.97.31l7-5.08 6.86 4.99c.37.34.91.46 1.4.29a1.4 1.4 0 00.91-1.8l-2.69-8.19 6.95-5.02c.4-.26.66-.68.66-1.2a1.4 1.4 0 00-1.41-1.41zm-8.69 5.94c-.54.4-.74 1.11-.49 1.68l1.6 4.94-4.26-3.11a1.41 1.41 0 00-1.77.09l-4.17 3.03 1.66-5.02c.2-.63-.06-1.28-.6-1.63l-4.2-3.05 5.29.03c.66 0 1.23-.49 1.37-1.11l1.6-4.88 1.6 4.99c.23.66.86 1.06 1.52 1l5.12-.03-4.27 3.07zM1693.93 899.48v.03c0 .09 0 .14-.03.23a10.87 10.87 0 01-3.14 6.48 10.97 10.97 0 01-6.29 3.14v3.03c0 .8-.69 1.48-1.49 1.48s-1.46-.66-1.46-1.48v-3.03a10.97 10.97 0 01-6.29-3.14 10.94 10.94 0 01-3.17-6.48v-.26c0-.8.63-1.43 1.43-1.43.77 0 1.43.63 1.43 1.43a8.3 8.3 0 002.32 4.74 8.15 8.15 0 0013.84-4.74c0-.8.63-1.43 1.43-1.43.8 0 1.42.63 1.42 1.43zm-10.94-12.84c3.6 0 6.55 2.94 6.55 6.54v5.31a6.53 6.53 0 01-13.07 0v-5.31c0-3.6 2.94-6.54 6.52-6.54z"/><path class="st1" d="M1711.65 892.73h15.58c1.09 0 1.97.88 1.97 1.94v1.97l7.12-3.85v14.93l-7.12-3.88v1.97c0 1.08-.89 1.97-1.97 1.97h-15.58a1.97 1.97 0 01-1.97-1.97v-11.13c0-1.07.88-1.95 1.97-1.95z"/><g><path class="st1" d="M196.74 83.77c0 3.01-.89 52.15 11.26 95.87l.84-.15c.49-.15.99-.3 1.48-.39.64-.25 1.23-.39 1.88-.54.59-.15 1.14-.3 1.68-.39.69-.25 1.43-.49 2.17-.64.79-.3 1.58-.49 2.42-.64.69-.25 1.38-.39 2.12-.54.74-.25 1.48-.39 2.27-.64a241.73 241.73 0 01-6.07-31.35 366.73 366.73 0 01-2.17-22.67c-.89-14.2-.74-24.25-.74-25.38 37.72-11.93 52.04-19.37 58.51-23.02 6.47 3.65 20.79 11.09 58.46 23.02 0 2.32.69 42.14-8.59 77.78 3.41-.05 6.52.89 9.28 2.91.99.54 1.93.99 2.86 1.63l.39.3c.64.3 1.23.59 1.83.89 12.24-43.72 11.36-93.01 11.36-96.01-48.74-15.52-67.26-25.08-75.6-29.81-8.4 4.73-26.91 14.29-75.64 29.77z"/><path class="st3" d="M218.76 182c4.49 15.23 10.62 29.38 18.86 39.97 19.01 24.35 50.46 24.35 69.52 0 8.25-10.6 14.32-24.74 18.81-39.97-33.63-11.78-73.52-11.78-107.19 0zm124.91-8.92l-1.63 6.26c-5.09 19.37-12.49 37.85-23.3 51.7-24.93 31.94-67.84 31.94-92.72 0-10.81-13.85-18.22-32.33-23.3-51.7l-1.63-6.26c49.22-19.81 93.55-19.76 142.58 0z"/><path class="st3" d="M274.65 179.49l9.92 6.65 14.17-6.21 9.43 9.56 15.7-4.14 6.47 10.7.54-.05c-.54 2.42-.49 4.98.2 7.39l-4.59.54-6.07-10.05-14.52 3.84-8.84-8.97-13.18 5.82-11.31-7.59-11.26 7.59-13.18-5.82-8.84 8.97-14.52-3.84-6.07 10.05-6.27-.74c.25-2.56-.15-5.18-1.18-7.54l3.55.39 6.47-10.7 15.75 4.14 9.43-9.56 14.12 6.21 12-8.03 2.08 1.39z"/><path class="st3" d="M274.65 199.21l9.92 6.65 14.17-6.21 9.43 9.56 15.7-4.14 3.41 5.62a15.58 15.58 0 00-4.84 6.26l-2.02-3.35-14.52 3.84-8.84-8.97-13.18 5.82-11.31-7.59-11.26 7.59-13.18-5.82-8.84 8.97-14.52-3.84-2.72 4.53a14.87 14.87 0 00-3.8-7.98l3.01-5.08 15.75 4.14 9.43-9.56 14.12 6.21 12-8.03 2.09 1.38z"/><path class="st3" d="M274.65 218.92l9.92 6.65 14.17-6.21 9.43 9.56 2.57-.69a14.59 14.59 0 00-.2 7.69l-4.64 1.23-8.84-8.97-13.18 5.82-11.31-7.59-11.25 7.59-13.18-5.82-8.84 8.97-7.21-1.92c-.05-1.23-.3-2.42-.64-3.55-.25-1.63-.74-3.2-1.43-4.63l7.01 1.87 9.43-9.56 14.12 6.21 12-8.03 2.07 1.38z"/><path class="st1" d="M234.36 141.44l9.43 9.36 23.45-23.36-23.45-23.41-9.43 9.36 14.07 14.05zM280.18 141.44l9.43 9.36 23.45-23.36-23.45-23.41-9.43 9.36 14.07 14.05z"/></g><g><path class="st1" d="M1292.74 705.97c0 3.03-.89 52.5 11.33 96.51l.84-.15c.5-.15.99-.3 1.49-.4.65-.25 1.24-.4 1.89-.55.6-.15 1.14-.3 1.69-.4.7-.25 1.44-.5 2.19-.65.8-.3 1.59-.5 2.44-.65.7-.25 1.39-.4 2.14-.55.75-.25 1.49-.4 2.29-.65a243.6 243.6 0 01-6.11-31.56 381 381 0 01-2.19-22.83c-.89-14.29-.75-24.41-.75-25.55 37.97-12.01 52.39-19.5 58.9-23.17 6.51 3.67 20.93 11.16 58.85 23.17 0 2.33.7 42.43-8.65 78.3a15 15 0 019.34 2.93c.99.55 1.94.99 2.88 1.64l.4.3c.65.3 1.24.6 1.84.89 12.33-44.01 11.43-93.63 11.43-96.66-49.06-15.58-67.7-25.21-76.1-29.97-8.44 4.79-27.08 14.42-76.14 30z"/><path class="st3" d="M1314.91 804.87c4.52 15.33 10.69 29.57 18.99 40.24 19.14 24.51 50.8 24.51 69.98 0 8.3-10.67 14.41-24.91 18.94-40.24-33.85-11.86-74.01-11.86-107.91 0zm125.75-8.99l-1.64 6.3c-5.12 19.5-12.58 38.11-23.46 52.05-25.1 32.15-68.29 32.15-93.35 0-10.89-13.94-18.34-32.55-23.46-52.05l-1.64-6.3c49.56-19.94 94.19-19.89 143.55 0z"/><path class="st3" d="M1371.17 802.33l9.99 6.7 14.27-6.25 9.49 9.63 15.81-4.17 6.51 10.77.55-.05c-.55 2.43-.5 5.01.2 7.44l-4.62.55-6.11-10.12-14.61 3.87-8.9-9.03-13.27 5.86-11.38-7.64-11.33 7.64-13.27-5.86-8.9 9.03-14.61-3.87-6.11 10.12-6.31-.74c.25-2.58-.15-5.21-1.19-7.59l3.58.4 6.51-10.77 15.86 4.17 9.49-9.63 14.22 6.25 12.08-8.09 2.05 1.38z"/><path class="st3" d="M1371.17 822.18l9.99 6.7 14.27-6.25 9.49 9.63 15.81-4.17 3.43 5.66a15.53 15.53 0 00-4.87 6.3l-2.04-3.37-14.61 3.87-8.9-9.03-13.27 5.86-11.38-7.64-11.33 7.64-13.27-5.86-8.9 9.03-14.61-3.87-2.73 4.57a15.02 15.02 0 00-3.83-8.04l3.03-5.11 15.86 4.17 9.49-9.63 14.22 6.25 12.08-8.09 2.07 1.38z"/><path class="st3" d="M1371.17 842.03l9.99 6.7 14.27-6.25 9.49 9.63 2.58-.69c-.8 2.63-.8 5.26-.2 7.74l-4.67 1.24-8.9-9.03-13.27 5.86-11.38-7.64-11.33 7.64-13.27-5.86-8.9 9.03-7.26-1.94c-.05-1.24-.3-2.43-.65-3.57a16.53 16.53 0 00-1.44-4.66l7.06 1.89 9.49-9.63 14.22 6.25 12.08-8.09 2.09 1.38z"/><path class="st1" d="M1330.61 764.03l9.5 9.43 23.61-23.52-23.61-23.57-9.5 9.42 14.17 14.15zM1376.74 764.03l9.49 9.43 23.61-23.52-23.61-23.57-9.49 9.42 14.17 14.15z"/></g><g><path class="st1" d="M822.2 199.31a13.77 13.77 0 01-13.79-13.77v-.44h-14.05v.44a27.82 27.82 0 0027.84 27.79 27.82 27.82 0 0027.84-27.79v-.44h-14.05v.44c0 7.61-6.17 13.77-13.79 13.77zM827.93 124.79h38.8v13.52h-38.8z"/><path class="st1" d="M761.41 96.62c38.68-12.26 53.35-19.87 59.97-23.64 6.68 3.77 21.35 11.38 60.03 23.64 0 4.34 2.46 137.78-60.03 137.65-62.42.13-59.97-133.31-59.97-137.65zm59.97 155.39c80.75.19 77.6-162.62 77.6-168.21-50.01-15.91-68.97-25.72-77.6-30.56-8.57 4.84-27.53 14.65-77.54 30.56 0 5.59-3.15 168.4 77.54 168.21z"/><path class="st1" d="M795.24 111.97c-11.15 0-20.09 8.99-20.09 20.06s8.94 20.06 20.09 20.06c11.09 0 20.09-8.99 20.09-20.06s-9-20.06-20.09-20.06zm-6.36 20.06a6.34 6.34 0 016.36-6.35c3.46 0 6.36 2.83 6.36 6.35s-2.9 6.35-6.36 6.35a6.34 6.34 0 01-6.36-6.35z"/></g><g><path class="st1" d="M1292.64 80.56c0 3.06-.96 53.13 11.42 97.67l.86-.15c.5-.15 1.01-.3 1.51-.4.65-.25 1.31-.4 1.96-.55.55-.15 1.11-.3 1.71-.4.7-.25 1.46-.5 2.16-.65.8-.3 1.66-.5 2.52-.65.7-.2 1.41-.4 2.11-.5.75-.3 1.56-.45 2.31-.7a254.54 254.54 0 01-6.14-31.94 310.4 310.4 0 01-2.21-23.1c-.96-14.41-.75-24.71-.75-25.86 38.38-12.15 52.96-19.73 59.55-23.45 6.59 3.72 21.18 11.3 59.6 23.45 0 2.36.65 42.93-8.8 79.24 3.47-.05 6.64.9 9.46 2.96 1.06.55 1.96 1 2.92 1.66l.45.3 1.81.9c12.52-44.54 11.62-94.7 11.62-97.82-49.64-15.77-68.51-25.51-77.06-30.33-8.5 4.81-27.36 14.55-77.01 30.32z"/><path class="st3" d="M1315.08 180.63c4.58 15.52 10.76 29.93 19.21 40.72 19.36 24.81 51.41 24.81 70.77 0 8.4-10.8 14.64-25.21 19.21-40.72-34.3-12-74.94-12-109.19 0zm127.2-9.09l-1.66 6.38c-5.18 19.73-12.73 38.56-23.69 52.67-25.4 32.54-69.11 32.54-94.51 0-11.02-14.11-18.56-32.94-23.69-52.67l-1.71-6.38c50.2-20.18 95.32-20.08 145.26 0z"/><path class="st3" d="M1423.97 190.27h.1l.05.05h.1l.05.05h.1l.05.05h.1l.05.05h.1l.05.05h.1l.05.05h.1l.05.05h.1l.05.05h.1l.05.05h.1l.05.05h.1l.05.05h.05l.05.05h.05l.1.05h.05l.1.05h.1l.05.05h.05l.1.05h.05l.1.05h.05l.1.05h.05l.1.05h.05l.1.05h.05a14.7 14.7 0 00-1.01 7.63l-.1-.05-.15-.05h-.1l-.1-.05h-.05l-.1-.05-.1-.05-.15-.05h-.05l-.05-.05h-.1l-.15-.05-.1-.05h-.05l-.05-.05-.15-.05-.1-.05h-.1l-.05-.05h-.1l-.1-.05a162.4 162.4 0 00-26.76-6.78l.75-7.48a172.71 172.71 0 0126.02 6.33zm-36.77-.25a178.07 178.07 0 00-35.16-.25l-.75-7.48c12.17-1.1 24.55-1 36.67.3l-.76 7.43zm-45.11.96a162.82 162.82 0 00-24.29 5.52h-.1l-.05.05h-.1l-.05.05H1317.35v.05H1317.2l-.05.05h-.1l-.05.05h-.1l-.05.05h-.1l-.05.05h-.1l-.05.05H1316.4v.05H1316.25v.05H1316.1l-.05.05h-.1v.05H1315.8l-.05.05a15.84 15.84 0 00-3.37-6.83h.1v-.05H1312.63v-.05H1312.78v-.05H1312.93v-.05H1313.08v-.05H1313.23v-.05H1313.38v-.05H1313.53v-.05H1313.68l.05-.05h.1l.05-.05h.1c8.8-2.86 17.96-4.97 27.36-6.33l.75 7.49zM1406.72 232.96a159.5 159.5 0 00-9.51-1.86l.75-7.48c5.23.85 10.46 1.96 15.59 3.26-.2.35-.4.85-.65 1.15-.55.45-1.16.95-1.66 1.51l-.25.2c-1.6.81-3.06 1.91-4.27 3.22zm-19.52-3.27a178.07 178.07 0 00-35.16-.25l-.75-7.48c12.17-1.1 24.55-1 36.67.3l-.76 7.43zm-45.11.96c-3.67.55-7.29 1.21-10.86 2.01-.35-1-.91-2.26-1.41-3.21a16.58 16.58 0 00-1.81-3.01l-.45-.65c4.53-1.05 9.1-1.91 13.78-2.61l.75 7.47zM1374.68 201.57c15.74.4 31.59 2.81 46.68 7.33a15.66 15.66 0 00-3.52 6.78 171.84 171.84 0 00-43.16-6.58v-7.53zm-51.1 5.88a179.06 179.06 0 0141.04-5.82v7.53a173.28 173.28 0 00-39.28 5.57c0-2.71-.61-4.92-1.76-7.28z"/><path class="st1" d="M1328.51 142.02l-9.61-9.54 23.89-23.85 23.89 23.85-9.6 9.54-14.29-14.26zM1382.73 142.02l-9.56-9.54 23.89-23.85 23.84 23.85-9.55 9.54-14.29-14.26z"/></g><g><path class="st1" d="M1841.05 81.22c0 .76-.05 4.29 0 9.84a29.79 29.79 0 00-20.16 21.95l-17.99 3.33 1.16 6.16a38.9 38.9 0 0013.59 23.16l-11.17 11.65 4.6 4.34a39.25 39.25 0 0028 10.85 39.9 39.9 0 0011.17-1.92c9.6 40.16 28.96 78.66 68.18 78.61 39.27.05 58.62-38.44 68.18-78.61a39.37 39.37 0 0039.27-8.93l4.55-4.34-11.17-11.65a39.16 39.16 0 0013.65-23.16l1.11-6.16-17.99-3.33a29.63 29.63 0 00-20.22-21.95c.1-5.55.05-9.08.05-9.84-49.88-15.84-68.83-25.63-77.42-30.47-8.56 4.84-27.51 14.62-77.39 30.47zm.45 23.31c.71 14.33 2.32 33.75 6.12 53.63a26.62 26.62 0 01-22.79-1.82l12.84-13.47-7.38-3.83a27 27 0 01-11.98-12.76l9.35-1.72 4.9-.91.25-4.99a17.18 17.18 0 018.69-14.13zm147.72 53.63a390.24 390.24 0 006.12-53.63 17.14 17.14 0 018.74 14.13l.25 4.99 14.25 2.62a26.92 26.92 0 01-11.98 12.76l-7.38 3.83 12.84 13.47a26.63 26.63 0 01-22.84 1.83zm-84.39 28.35c0 3.78 1.52 7.16 3.99 9.64a13.76 13.76 0 009.6 3.99c3.79 0 7.18-1.56 9.65-3.99a13.66 13.66 0 003.94-9.64h12.63c0 7.27-2.93 13.82-7.68 18.52a26.16 26.16 0 01-37.1 0 25.92 25.92 0 01-7.68-18.52h12.65zm13.59-62.51c2.27 0 4.5.3 6.57.91a22.63 22.63 0 013.64-4.59c4.35-4.39 10.41-7.06 17.08-7.06a24.14 24.14 0 0117.13 41.21c-4.4 4.39-10.46 7.11-17.13 7.11s-12.74-2.72-17.08-7.11a24.08 24.08 0 01-7.13-16.4 10.63 10.63 0 00-6.17 0 23.99 23.99 0 01-7.08 16.4c-4.4 4.39-10.46 7.11-17.13 7.11s-12.74-2.72-17.08-7.11a24.02 24.02 0 010-34.15c4.35-4.39 10.41-7.06 17.08-7.06a24.14 24.14 0 0120.72 11.65 23.7 23.7 0 016.58-.91zm-19.81 5.95a10.5 10.5 0 00-7.48-3.08 10.5 10.5 0 00-10.56 10.55 10.57 10.57 0 0021.12 0c0-2.93-1.16-5.55-3.08-7.47zm54.58 0c-1.92-1.92-4.55-3.08-7.48-3.08a10.5 10.5 0 00-10.56 10.55 10.57 10.57 0 0021.12 0c0-2.93-1.16-5.55-3.08-7.47zm-94.61-35.92c38.56-12.21 53.22-19.83 59.84-23.56 6.62 3.73 21.28 11.35 59.89 23.56 0 4.39 2.43 137.53-59.89 137.43-37.75.05-51.7-48.74-56.86-88.24a345.02 345.02 0 01-2.27-23.21c-.91-14.47-.71-24.82-.71-25.98z"/></g><g><path class="st1" d="M330.14 435.53c.07 14.2-.63 122.59-53.97 122.52-53.42.07-54.11-108.32-54.04-122.52h-15.69c1.05 36.83 9.14 138.6 69.73 138.47 60.53.14 68.62-101.64 69.66-138.47h-15.69z"/><path class="st1" d="M276.87 528.68a12.43 12.43 0 01-12.41-12.39v-.42h-12.62v.42a25.03 25.03 0 0050.06 0v-.42h-12.62v.42c0 6.82-5.58 12.39-12.41 12.39zM282.59 465.75h35.01v12.11h-35.01zM215.15 499.79l8.58 8.63 25.59-25.62a13.56 13.56 0 01-3.14-2.23l-1.6-1.6a13.1 13.1 0 01-3.14-5.43l-26.29 26.25zm50.56-33.28l29.15-29.1-8.58-8.63-29.85 29.8c1.95.56 3.84 1.6 5.44 3.13l1.6 1.67c.91.91 1.68 1.95 2.24 3.13z"/><path class="st3" d="M342.7 427.25c.07 0 18.13 1.04 20.01-18.17-8.93 4.18-20.92 3.97-29.22-18.87-3.77-10.58-14.85-19.49-24.55-24.71a32.74 32.74 0 01-32.77 32.23c-17.85 0-32.5-14.2-32.84-32.02-10.25 5.36-20.5 13.44-24.55 24.64-8.3 22.76-20.29 23.04-29.22 18.87 1.88 19.21 19.94 18.17 20.01 18.17l133.13-.14zm33.61-33.28c9.34 50.19-33.96 47.83-34.31 47.83l-131.73.14s-43.65 2.58-34.31-47.83l12.62-3.55c.07.07 10.32 11.83 16.46-5.15 7.11-19.77 26.92-32.16 45.95-38.85l8.93 10.16c-6 11.77 2.37 26.38 16.25 26.38s22.31-14.83 16.11-26.59l8.79-10.3c18.41 6.2 39.33 20.05 46.16 39.05 6.14 16.99 16.39 5.22 16.46 5.15l12.62 3.56z"/><path class="st1" d="M253.16 451.69a19.37 19.37 0 00-19.39 19.35 19.42 19.42 0 0019.39 19.35c10.74 0 19.39-8.7 19.39-19.35a19.34 19.34 0 00-19.39-19.35zm-6.14 19.35a6.15 6.15 0 0112.28 0 6.15 6.15 0 01-12.28 0zM276.17 405.53a6.15 6.15 0 00-6.21 6.13 6.16 6.16 0 006.21 6.13 6.14 6.14 0 100-12.26z"/></g><g><path class="st1" d="M743.5 393.88c0 3.07-.96 53.33 11.46 98.05l.86-.15c.5-.15 1.01-.3 1.51-.4.66-.25 1.31-.4 1.97-.55.56-.15 1.11-.3 1.67-.4.76-.25 1.46-.5 2.22-.66.81-.3 1.67-.5 2.47-.66.71-.2 1.46-.4 2.17-.5.76-.3 1.57-.45 2.32-.71a246.32 246.32 0 01-6.16-32.06 344.51 344.51 0 01-2.27-23.19c-.91-14.47-.71-24.8-.71-25.96 38.53-12.2 53.17-19.81 59.78-23.54 6.61 3.73 21.26 11.34 59.84 23.54 0 2.37.66 43.1-8.84 79.55 3.48-.05 6.67.91 9.49 2.97 1.06.55 1.97 1.01 2.93 1.66l.45.3 1.82.91c12.57-44.71 11.66-95.07 11.66-98.2-49.84-15.83-68.77-25.61-77.36-30.45-8.51 4.84-27.45 14.62-77.28 30.45z"/><path class="st3" d="M766.02 494.34c4.59 15.58 10.81 30.04 19.29 40.88 19.44 24.9 51.6 24.9 71.04 0 8.43-10.84 14.69-25.31 19.29-40.88-34.44-12.04-75.24-12.04-109.62 0zm127.69-9.12l-1.67 6.4c-5.2 19.81-12.78 38.71-23.83 52.88-25.45 32.66-69.33 32.66-94.83 0-11.06-14.16-18.63-33.07-23.83-52.88l-1.67-6.4c50.4-20.26 95.69-20.16 145.83 0z"/><path class="st3" d="M821.05 495.15c21.21 0 41.25 3.53 58.98 9.78a15.3 15.3 0 00-1.06 7.66c-17.27-6.3-36.96-9.88-57.92-9.88-18.88 0-36.76 2.92-52.77 8.07a14.52 14.52 0 00-3.38-6.81 179.04 179.04 0 0156.15-8.82zM821.05 515.31c18.23 0 35.6 2.62 51.35 7.31a15 15 0 00-3.79 6.75 173.65 173.65 0 00-47.57-6.5c-17.27 0-33.73 2.42-48.68 6.81a15.46 15.46 0 00-4.8-6.4 180.36 180.36 0 0153.49-7.97zM821.05 534.97c14.29 0 28.07 1.61 40.95 4.59a15.09 15.09 0 00-3.23 7.01 175.23 175.23 0 00-37.72-4.03c-11.21 0-22.12 1.01-32.42 2.97a15.18 15.18 0 00-5.81-6.55 184.52 184.52 0 0138.23-3.99z"/><path class="st1" d="M794.49 419.34c-11.16 0-20.2 9.02-20.2 20.16s9.04 20.16 20.2 20.16 20.2-9.02 20.2-20.16-9.04-20.16-20.2-20.16zm-6.41 20.16a6.41 6.41 0 0112.82 0 6.41 6.41 0 01-12.82 0zM847.06 419.34c-11.16 0-20.2 9.02-20.2 20.16s9.04 20.16 20.2 20.16 20.2-9.02 20.2-20.16-9.04-20.16-20.2-20.16zm-6.41 20.16a6.41 6.41 0 0112.82 0 6.41 6.41 0 01-12.82 0z"/></g><g><path class="st1" d="M1370.16 511.71a13.68 13.68 0 01-13.69-13.67v-.44h-13.94v.44a27.61 27.61 0 0027.63 27.58 27.62 27.62 0 0027.63-27.58v-.44h-14c.06.12.06.25.06.44 0 7.55-6.12 13.67-13.69 13.67zM1329.78 428.4l-9.5 9.48 23.69 23.59 23.69-23.59-9.5-9.48-14.19 14.1zM1383.54 428.4l-9.5 9.48 23.69 23.59 23.69-23.59-9.5-9.48-14.19 14.1z"/><path class="st1" d="M1309.84 409.8c38.32-12.17 52.94-19.72 59.51-23.46 6.56 3.74 21.13 11.29 59.51 23.46 0 4.31 2.44 136.72-59.51 136.6-61.95.13-59.51-132.29-59.51-136.6zm59.51 154.2c80.07.19 76.95-161.37 76.95-166.93-49.57-15.79-68.45-25.52-76.95-30.33-8.5 4.81-27.38 14.54-76.95 30.33 0 5.56-3.12 167.12 76.95 166.93z"/><path class="st1" d="M1309.84 409.8c38.32-12.17 52.94-19.72 59.51-23.46 6.56 3.74 21.13 11.29 59.51 23.46 0 4.31 2.44 136.72-59.51 136.6-61.95.13-59.51-132.29-59.51-136.6zm59.51 154.2c80.07.19 76.95-161.37 76.95-166.93-49.57-15.79-68.45-25.52-76.95-30.33-8.5 4.81-27.38 14.54-76.95 30.33 0 5.56-3.12 167.12 76.95 166.93z"/><path class="st1" d="M1370.16 511.71a13.68 13.68 0 01-13.69-13.67v-.44h-13.94v.44a27.61 27.61 0 0027.63 27.58 27.62 27.62 0 0027.63-27.58v-.44h-14c.06.12.06.25.06.44 0 7.55-6.12 13.67-13.69 13.67zM1316.97 517.76h-13.94v12.85c0 7.55-6.13 13.67-13.69 13.67h-.44v13.92h.44a27.62 27.62 0 0027.63-27.58v-12.86z"/><path class="st1" d="M1316.97 486.56h-13.94v20.34c0 7.55-6.13 13.67-13.69 13.67h-.44v13.92h.44a27.62 27.62 0 0027.63-27.58v-20.35zM1422.04 517.76h13.94v12.85c0 7.55 6.13 13.67 13.69 13.67h.44v13.92h-.44a27.62 27.62 0 01-27.63-27.58v-12.86z"/><path class="st1" d="M1422.04 484.69h13.94v22.22c0 7.55 6.13 13.67 13.69 13.67h.44v13.92h-.44a27.62 27.62 0 01-27.63-27.58v-22.23z"/></g><g><path class="st1" d="M1954.95 457.17l-9.71 9.7-24.22-24.18 24.22-24.18 9.71 9.7-14.51 14.48zM1907.66 457.17l-9.72 9.7-24.22-24.18 24.22-24.18 9.72 9.7-14.51 14.48z"/><path class="st1" d="M1856.4 406.77c39.24-12.44 54.13-20.16 60.84-23.99 6.77 3.83 21.67 11.55 60.91 23.99 0 4.4 2.49 139.79-60.91 139.67-63.33.12-60.84-135.27-60.84-139.67zm60.84 157.66c81.93.19 78.74-165 78.74-170.67-50.75-16.14-69.98-26.1-78.74-31.01-8.69 4.91-27.93 14.87-78.67 31.01 0 5.67-3.2 170.86 78.67 170.67z"/><path class="st1" d="M1917.44 484.29a20.34 20.34 0 100 40.7 20.36 20.36 0 0020.45-20.35 20.4 20.4 0 00-20.45-20.35zm-6.46 20.35a6.51 6.51 0 016.46-6.44 6.52 6.52 0 016.52 6.44 6.49 6.49 0 01-12.98 0z"/></g><g><path class="st1" d="M865.95 773.17l-9.71 9.7-24.22-24.18 24.22-24.18 9.71 9.7-14.51 14.48zM818.66 773.17l-9.72 9.7-24.22-24.18 24.22-24.18 9.72 9.7-14.51 14.48z"/><path class="st1" d="M767.4 722.77c39.24-12.44 54.13-20.16 60.84-23.99 6.77 3.83 21.67 11.55 60.91 23.99 0 4.4 2.49 139.79-60.91 139.67-63.33.12-60.84-135.27-60.84-139.67zm60.84 157.66c81.93.19 78.74-165 78.74-170.67-50.75-16.14-69.98-26.1-78.74-31.01-8.69 4.91-27.93 14.87-78.67 31.01 0 5.67-3.2 170.86 78.67 170.67z"/><path class="st1" d="M828.44 800.29a20.34 20.34 0 100 40.7 20.36 20.36 0 0020.45-20.35 20.4 20.4 0 00-20.45-20.35zm-6.46 20.35a6.51 6.51 0 016.46-6.44 6.52 6.52 0 016.52 6.44 6.49 6.49 0 01-12.98 0z"/></g><g><path class="st1" d="M197.02 706.4c0 3.03-.95 52.57 11.3 96.63l.85-.15c.5-.15 1-.3 1.49-.4.65-.25 1.29-.4 1.94-.55.55-.15 1.09-.3 1.64-.4.75-.25 1.44-.5 2.19-.65.8-.3 1.64-.5 2.44-.65.7-.2 1.44-.4 2.14-.5.75-.3 1.54-.45 2.29-.7a242.23 242.23 0 01-6.12-31.6c-1.05-8.2-1.74-16-2.19-22.85-.9-14.26-.75-24.44-.7-25.59 37.97-12.02 52.41-19.53 58.92-23.2 6.52 3.68 20.95 11.18 58.97 23.2 0 2.34.65 42.48-8.71 78.4 3.43-.05 6.57.89 9.36 2.93 1.05.55 1.94.99 2.89 1.64l.45.3 1.79.89c12.34-44.07 11.5-93.7 11.5-96.78-49.12-15.6-67.83-25.24-76.24-30.01-8.42 4.8-27.08 14.44-76.2 30.04z"/><path class="st3" d="M219.22 805.42c4.53 15.35 10.65 29.61 18.96 40.29 19.16 24.54 50.91 24.54 70.07 0 8.31-10.68 14.48-24.94 19.01-40.29-33.94-11.88-74.15-11.88-108.04 0zm125.86-8.99l-1.64 6.31c-5.13 19.53-12.59 38.16-23.49 52.12-25.13 32.2-68.33 32.2-93.46 0-10.9-13.96-18.36-32.59-23.49-52.12l-1.64-6.31c49.61-19.98 94.3-19.88 143.72 0z"/><path class="st1" d="M273.21 813.82a3.88 3.88 0 100-7.77 3.88 3.88 0 000 7.77zM273.21 833.69a3.88 3.88 0 100-7.77 3.88 3.88 0 000 7.77zM273.21 853.56a3.88 3.88 0 100-7.77 3.88 3.88 0 000 7.77zM290.09 814.61a3.88 3.88 0 100-7.77 3.88 3.88 0 000 7.77zM290.09 834.48a3.88 3.88 0 100-7.77 3.88 3.88 0 000 7.77zM290.09 854.36a3.88 3.88 0 100-7.77 3.88 3.88 0 000 7.77zM321.74 820.62c2.14 0 3.88-1.74 3.88-3.88s-1.74-3.92-3.88-3.92c-2.14 0-3.88 1.79-3.88 3.92s1.74 3.88 3.88 3.88zM306.31 816.9a3.88 3.88 0 100-7.77 3.88 3.88 0 000 7.77zM306.31 836.77a3.88 3.88 0 100-7.77 3.88 3.88 0 000 7.77zM306.31 856.64a3.88 3.88 0 100-7.77 3.88 3.88 0 000 7.77zM256.34 814.61a3.88 3.88 0 100-7.77 3.88 3.88 0 000 7.77zM256.34 834.48a3.88 3.88 0 100-7.77 3.88 3.88 0 000 7.77zM256.34 854.36a3.88 3.88 0 100-7.77 3.88 3.88 0 000 7.77zM240.12 816.9a3.88 3.88 0 100-7.77 3.88 3.88 0 000 7.77zM240.12 836.77a3.88 3.88 0 100-7.77 3.88 3.88 0 000 7.77zM240.12 856.64a3.88 3.88 0 100-7.77 3.88 3.88 0 000 7.77zM224.69 820.62c2.14 0 3.93-1.79 3.93-3.92s-1.79-3.88-3.93-3.88c-2.09 0-3.88 1.74-3.88 3.88s1.79 3.92 3.88 3.92zM247.38 731.59a19.72 19.72 0 00-19.76 19.72 19.71 19.71 0 0019.76 19.67 19.74 19.74 0 0019.76-19.68 19.74 19.74 0 00-18.02-19.67c-.59-.04-1.14-.04-1.74-.04zm0 13.46a6.27 6.27 0 016.27 6.26 6.26 6.26 0 01-6.27 6.21 6.26 6.26 0 01-6.27-6.21 6.28 6.28 0 016.27-6.26zM279.73 760.26l9.51 9.49 8.86-8.85 8.86 8.85 9.5-9.49-8.86-8.85 8.86-8.84-9.5-9.49-8.86 8.89-8.86-8.89-9.51 9.49 8.91 8.84z"/></g><g><path class="st1" d="M1841.99 706.73c0 3.02-.89 52.4 11.31 96.32l.84-.15c.5-.15.99-.3 1.49-.4.64-.25 1.29-.4 1.93-.54.55-.15 1.09-.3 1.64-.4.74-.25 1.44-.5 2.18-.64.79-.3 1.64-.5 2.43-.64.69-.25 1.39-.4 2.13-.54.74-.25 1.54-.4 2.28-.64a242.69 242.69 0 01-6.1-31.5 371.02 371.02 0 01-2.18-22.78c-.89-14.26-.74-24.37-.74-25.5 37.9-11.98 52.29-19.46 58.78-23.13 6.5 3.66 20.88 11.14 58.78 23.13 0 2.33.64 42.34-8.68 78.15 3.42-.05 6.55.89 9.33 2.92.99.54 1.93.99 2.88 1.63l.45.3 1.79.89c12.3-43.93 11.46-93.45 11.46-96.47-49.01-15.55-67.62-25.16-76-29.91-8.38 4.74-26.99 14.35-76 29.9z"/><path class="st3" d="M1864.16 805.43c4.51 15.3 10.62 29.52 18.9 40.16 19.1 24.46 50.75 24.46 69.85 0 8.28-10.65 14.39-24.86 18.9-40.16-33.78-11.84-73.86-11.84-107.65 0zm125.46-8.96l-1.64 6.29c-5.11 19.46-12.55 38.03-23.41 51.95-25.05 32.09-68.11 32.09-93.16 0-10.86-13.92-18.31-32.49-23.41-51.95l-1.64-6.29c49.45-19.91 94-19.86 143.26 0z"/><path class="st3" d="M1939.07 790.18l34.87 34.82a14.56 14.56 0 00-3.27 7.23l-42.36-42.29h7.69-.15c1.09.19 2.13.24 3.22.24zm-31.4-.25l-42.51 42.44a15.45 15.45 0 00-4.17-6.34l36.56-36.5c2.58.94 5.51 1.14 8.33.45l1.79-.05zM1920.62 796.52l45.94 45.91a14.35 14.35 0 00-5.11 5.35l-43.46-43.38-44.15 44.13a15 15 0 00-5.06-5.5l49.21-49.13 2.63 2.62z"/><path class="st3" d="M1920.62 820.29l35.62 35.56a15.14 15.14 0 00-6.9 3.62l-31.35-31.3-31.9 31.84a15.29 15.29 0 00-5.31-5.2l37.21-37.14 2.63 2.62z"/><path class="st3" d="M1920.62 844.06l20.64 20.6a14.82 14.82 0 00-7.84 2.72l-15.43-15.45-16.62 16.59a14.61 14.61 0 00-6.45-4.06l23.07-23.03 2.63 2.63z"/><path class="st1" d="M1874.88 760.21l9.43 9.46 8.83-8.81 8.83 8.81 9.47-9.46-8.83-8.81 8.83-8.82-9.47-9.41-8.83 8.82-8.83-8.82-9.43 9.41 8.83 8.82zM1923.4 760.21l9.42 9.46 8.88-8.81 8.83 8.81 9.43-9.46-8.83-8.81 8.83-8.82-9.43-9.41-8.83 8.82-8.88-8.82-9.42 9.41 8.83 8.82z"/></g></svg>