<?xml version="1.0" encoding="utf-8"?>
<!-- Generator: Adobe Illustrator 23.0.5, SVG Export Plug-In . SVG Version: 6.00 Build 0)  -->
<svg version="1.1" id="Layer_1" xmlns="http://www.w3.org/2000/svg" xmlns:xlink="http://www.w3.org/1999/xlink" x="0px" y="0px"
	 width="373.8px" height="276.2px" viewBox="0 0 373.8 276.2" style="enable-background:new 0 0 373.8 276.2;" xml:space="preserve"
	>
<style type="text/css">
	.st0{fill-rule:evenodd;clip-rule:evenodd;fill:url(#SVGID_1_);}
	.st1{fill-rule:evenodd;clip-rule:evenodd;fill:url(#SVGID_2_);}
	.st2{fill:#FFFFFF;}
	.st3{fill-rule:evenodd;clip-rule:evenodd;fill:#43FF01;}
	.st4{fill:#43FF01;}
</style>
<linearGradient id="SVGID_1_" gradientUnits="userSpaceOnUse" x1="568.7137" y1="3068.9893" x2="649.9407" y2="3209.6738" gradientTransform="matrix(1 0 0 1 -424.03 -3066.8799)">
	<stop  offset="0" style="stop-color:#99FF00"/>
	<stop  offset="1" style="stop-color:#00DD3B"/>
</linearGradient>
<path class="st0" d="M145,43.1c-2.2-9-5.6-29.1,3.5-34.3l0,0c9.1-5.2,24.8,7.7,31.6,14.1c-4.9,5.3-9.5,10.9-13.7,16.8
	C159.2,40.4,152,41.5,145,43.1L145,43.1L145,43.1z M176.3,39c3-3.9,6-7.5,9.1-10.8c3.2,3.4,6.2,7,9.1,10.8
	C188.4,38.7,182.3,38.7,176.3,39z M170.5,46.9c9.8-0.7,19.7-0.7,29.6,0c5,7.3,9.6,15,13.5,22.9c0.4,0.9,0.9,1.7,1.3,2.6
	c-0.4,0.9-0.8,1.7-1.3,2.6c-4,7.9-8.5,15.6-13.5,23c-9.8,0.7-19.7,0.7-29.6,0c-5.6-8.1-10.5-16.7-14.8-25.6
	C160,63.6,165,55,170.5,46.9L170.5,46.9z M213.7,90.8c1.9-3.1,3.6-6.3,5.3-9.4c1.9,4.5,3.5,8.9,4.8,13.2c-3.2,0.7-6.6,1.4-10.1,1.9
	c-1.3,0.2-2.5,0.4-3.8,0.5C211.2,95,212.5,92.9,213.7,90.8L213.7,90.8z M147,50.3c4.4-1,9-1.8,13.9-2.4c-3.3,5.1-6.3,10.3-9.1,15.7
	C149.9,59.1,148.3,54.6,147,50.3L147,50.3L147,50.3z M190.6,122.1c4.9-5.3,9.4-10.9,13.6-16.8c3.2-0.3,6.3-0.7,9.3-1.2
	c4.2-0.6,8.3-1.4,12.1-2.3c2.2,9.1,5.6,29.1-3.5,34.4l0,0c-2.6,1.3-5.6,1.6-8.5,0.8c-4.9-1.2-10.6-4.5-16.9-9.4
	C194.8,125.8,192.7,124.1,190.6,122.1L190.6,122.1z M151.8,81.4c2.8,5.4,5.8,10.6,9.1,15.7c-4.9-0.6-9.5-1.5-13.9-2.5
	C148.3,90.3,149.9,85.9,151.8,81.4z M145,101.9c7.1,1.6,14.2,2.7,21.4,3.4c4.2,5.9,8.8,11.5,13.7,16.8c-6.7,6.4-22.4,19.4-31.5,14.1
	l0,0C139.4,131,142.8,110.9,145,101.9L145,101.9L145,101.9z M111.7,72.5c0-10.5,19.1-17.7,28-20.3c2.1,6.9,4.7,13.7,7.8,20.3
	c-3,6.6-5.6,13.3-7.8,20.2C130.7,90.1,111.7,83,111.7,72.5z M137.6,100c-3.1,12.7-6,35.2,7.1,42.8l0,0c13.1,7.6,31.2-6.3,40.6-15.3
	c2.3,2.2,4.5,4.1,6.7,5.9c7.6,6.1,15,10,21.6,11.2c4.2,0.9,8.6,0.3,12.3-1.8l0,0c13.1-7.6,10.2-30.1,7.1-42.8
	c12.6-3.7,33.6-12.4,33.6-27.5S245.6,48.6,233,45c3.1-12.7,6-35.2-7.1-42.8l0,0c-3.7-2.1-8.1-2.7-12.3-1.9
	C203.1,2.2,192,11,185.3,17.4c-9.4-9.1-27.5-22.8-40.6-15.3l0,0c-13.1,7.5-10.2,30.1-7.1,42.8C125,48.5,104,57.2,104,72.4
	S125.1,96.2,137.6,100L137.6,100z M213.7,54.1c-1.2-2.1-2.5-4.2-3.8-6.2c1.3,0.2,2.6,0.3,3.8,0.5c3.5,0.5,6.9,1.2,10.1,1.9
	c-1.3,4.3-2.9,8.7-4.8,13.3C217.3,60.4,215.5,57.2,213.7,54.1L213.7,54.1z M190.7,22.9c4.9-4.7,14.6-12.8,23-14.9
	c2.8-0.9,5.9-0.6,8.6,0.8l0,0c9.1,5.2,5.7,25.3,3.5,34.3c-3.8-0.9-7.9-1.6-12.1-2.3c-3-0.4-6.1-0.8-9.3-1.2
	C200.1,33.8,195.6,28.1,190.7,22.9L190.7,22.9z M231.1,92.7c-2.1-6.9-4.7-13.7-7.8-20.2c3-6.6,5.6-13.3,7.8-20.3
	c8.9,2.6,28,9.7,28,20.3S240,90.1,231.1,92.7z M176.3,105.9c6,0.3,12.1,0.3,18.1,0c-3,3.9-6,7.5-9.1,10.8
	C182.3,113.4,179.3,109.8,176.3,105.9z"/>
<linearGradient id="SVGID_2_" gradientUnits="userSpaceOnUse" x1="603.6455" y1="3129.4192" x2="615.0983" y2="3149.2498" gradientTransform="matrix(1 0 0 1 -424.03 -3066.8799)">
	<stop  offset="0" style="stop-color:#99FF00"/>
	<stop  offset="1" style="stop-color:#00DD3B"/>
</linearGradient>
<path class="st1" d="M185.4,83.9c6.3,0,11.4-5.2,11.4-11.5S191.6,61,185.3,61s-11.4,5.2-11.4,11.5S179,83.9,185.4,83.9z"/>
<g>
	<path class="st2" d="M96.7,205.3v-36.4h16.6c4.6,0,8.2,1.2,10.7,3.6c2.2,2.3,3.3,5.3,3.2,8.4c0.3,5.1-2.9,9.7-7.8,11.2l8.9,13H119
		l-8-11.6h-6.2v11.6L96.7,205.3z M104.7,186.5h8.1c1.6,0.1,3.3-0.4,4.5-1.4c1.1-1,1.6-2.4,1.6-3.8c0.1-1.5-0.5-3-1.6-3.8
		c-1.3-1-3-1.4-4.6-1.2h-8C104.7,176.1,104.7,186.5,104.7,186.5z"/>
	<polygon class="st2" points="134,205.3 134,168.9 161.5,168.9 161.5,176 142,176 142,183.4 159.2,183.4 159.2,190.5 142,190.5 
		142,198.2 161.7,198.2 161.7,205.3 	"/>
	<path class="st2" d="M166.1,205.3l15.6-36.6h7.4l15.6,36.6h-8.4l-3.4-8.2h-15.4l-3.4,8.2L166.1,205.3L166.1,205.3z M180.5,190h9.7
		l-4.8-11.8L180.5,190z"/>
	<path class="st2" d="M224.3,205.8c-5,0.1-9.8-1.8-13.3-5.5c-7.2-7.8-6.6-20,1.2-27.1c5.6-5.1,13.5-6.4,20.4-3.6
		c2.3,1.2,4.3,2.6,6.1,4.4l-4.8,5.5c-1.2-1.2-2.8-2.3-4.3-3.1c-1.5-0.7-3.3-1-5-1c-2.9-0.1-5.7,1.2-7.6,3.3c-4,4.7-4,11.6,0,16.2
		c1.9,2.2,4.7,3.4,7.6,3.4c1.7,0,3.5-0.3,5.1-1.1c1.6-0.9,3.2-1.9,4.5-3.2l5.1,5.5c-1.8,2-4,3.6-6.4,4.7
		C230.2,205.5,227.2,205.9,224.3,205.8L224.3,205.8z"/>
	<polygon class="st2" points="254.6,205.3 254.6,176.3 243.5,176.3 243.5,168.9 273.7,168.9 273.7,176.3 262.5,176.3 262.5,205.3 	
		"/>
	<path class="st2" d="M109.5,273.7c-5.7,0.1-11.1-2-15.3-5.8l4.7-5.6c2.9,2.6,6.8,4.2,10.8,4.3c1.3,0.1,2.6-0.2,3.9-0.9
		c0.9-0.6,1.4-1.5,1.4-2.5s-0.6-2-1.4-2.5c-1.9-0.9-3.8-1.6-5.8-2.1c-1.7-0.4-3.4-0.9-5-1.5c-1.3-0.5-2.5-1.1-3.7-2
		c-1.1-0.8-2.1-1.9-2.5-3.1c-0.6-1.4-0.8-2.9-0.8-4.5c-0.1-3,1.2-5.9,3.5-7.9c2.5-2.1,5.8-3.1,9.2-3c4.9-0.1,9.6,1.5,13.4,4.6
		l-4.2,5.9c-2.7-2.1-5.9-3.3-9.3-3.6c-1.2-0.1-2.5,0.3-3.5,0.9c-0.8,0.6-1.2,1.4-1.2,2.4c0,1.1,0.6,2.1,1.5,2.6
		c2,0.9,4.2,1.6,6.3,2.1c3.2,0.7,6.1,2.1,8.7,4c1.9,1.8,2.9,4.3,2.7,6.9c0.2,3.2-1.2,6.2-3.7,8.2C116.4,272.8,113,273.8,109.5,273.7
		L109.5,273.7z"/>
	<path class="st2" d="M144.7,273.8c-4.9,0-8.8-1.3-11.5-4.2c-2.7-2.7-4.2-6.7-4.2-11.9v-20.7h7.9v20.5c-0.2,2.4,0.6,4.7,2,6.6
		c3.2,3,8.3,3,11.6,0.1c1.4-1.8,2.2-4.1,2-6.4v-20.7h7.9v20.4c0,5.4-1.4,9.3-4.2,12.2C153.6,272.4,149.7,273.8,144.7,273.8
		L144.7,273.8z"/>
	<polygon class="st2" points="168.7,273.2 168.7,237.1 177.2,237.1 186.7,252.4 196.2,237.1 204.8,237.1 204.8,273.2 196.9,273.2 
		196.9,249.7 186.7,265 186.5,265 176.5,249.8 176.5,273.2 	"/>
	<polygon class="st2" points="213.5,273.2 213.5,237.1 222.1,237.1 231.5,252.4 241,237.1 249.6,237.1 249.6,273.2 241.7,273.2 
		241.7,249.7 231.5,265 231.3,265 221.3,249.8 221.3,273.2 	"/>
	<rect x="257.9" y="237.1" class="st2" width="7.9" height="36"/>
	<polygon class="st2" points="283.3,273.2 283.3,244.5 272.2,244.5 272.2,237.1 302.2,237.1 302.2,244.5 291.2,244.5 291.2,273.2 	
		"/>
	<path class="st3" d="M77.6,220.6l-5.2,41.6l-5.2-41.6h-6.7l6.9,55.1h9.8l6.2-49.1h218.7v-6H77.6z"/>
	<path class="st4" d="M283.6,182.3v-3.9l7.4-6.1c1.5-1.2,2.5-2.2,3-2.9c0.6-0.7,0.8-1.5,0.8-2.4c0-0.9-0.3-1.6-0.8-2.1
		c-0.6-0.5-1.3-0.8-2.2-0.8c-0.8,0-1.6,0.2-2.2,0.7c-0.7,0.5-1.4,1.2-2.3,2.3l-3.4-2.8c1.2-1.6,2.4-2.8,3.6-3.5
		c1.2-0.7,2.8-1.1,4.7-1.1c2.3,0,4.2,0.6,5.6,1.9c1.4,1.3,2.1,2.9,2.1,5c0,1.2-0.2,2.3-0.7,3.3c-0.5,1-1.1,1.8-1.8,2.5
		s-1.9,1.7-3.3,2.8l-3.6,2.8h9.7v4.2H283.6z"/>
</g>
</svg>
